<?xml version="1.0" encoding="UTF-8" standalone="no"?>
<!DOCTYPE svg PUBLIC "-//W3C//DTD SVG 1.1//EN" "http://www.w3.org/Graphics/SVG/1.1/DTD/svg11.dtd">
<svg width="100%" height="100%" viewBox="0 0 24 24" version="1.1" xmlns="http://www.w3.org/2000/svg" xmlns:xlink="http://www.w3.org/1999/xlink" xml:space="preserve" xmlns:serif="http://www.serif.com/" style="fill-rule:evenodd;clip-rule:evenodd;stroke-linecap:round;stroke-linejoin:round;">
    <path d="M10,4L10,9C10,9.552 9.552,10 9,10L4,10C3.448,10 3,9.552 3,9L3,4C3,3.448 3.448,3 4,3L9,3C9.552,3 10,3.448 10,4Z" style="fill:none;stroke:black;stroke-width:2px;"/>
    <path d="M21,4L21,9C21,9.552 20.552,10 20,10L15,10C14.448,10 14,9.552 14,9L14,4C14,3.448 14.448,3 15,3L20,3C20.552,3 21,3.448 21,4Z" style="fill:none;stroke:black;stroke-width:2px;"/>
    <path d="M10,15L10,20C10,20.552 9.552,21 9,21L4,21C3.448,21 3,20.552 3,20L3,15C3,14.448 3.448,14 4,14L9,14C9.552,14 10,14.448 10,15Z" style="fill:none;stroke:black;stroke-width:2px;"/>
    <circle cx="17.5" cy="17.5" r="3.5" style="stroke:black;stroke-width:2px;stroke-miterlimit:1.5;"/>
</svg>
